<svg width="20" height="26" viewBox="0 0 20 26" fill="none" xmlns="http://www.w3.org/2000/svg">
<rect y="6" width="20" height="20" rx="5" fill="#00329F"/>
<path opacity="0.6" d="M12.5 20.7271V21H7.5V20.7271H7.91308C8.39501 20.7271 8.74498 20.6067 8.96299 20.3658C9.10069 20.2085 9.16954 19.8299 9.16954 19.2301V12.7699C9.16954 12.2635 9.13224 11.9292 9.05766 11.767C9.00029 11.6441 8.88267 11.5383 8.70482 11.4499C8.45238 11.3319 8.18847 11.2729 7.91308 11.2729H7.5V11H12.5V11.2729H12.0783C11.6021 11.2729 11.255 11.3933 11.037 11.6342C10.8936 11.7915 10.8219 12.1701 10.8219 12.7699V19.2301C10.8219 19.7365 10.8592 20.0708 10.9337 20.233C10.9911 20.3559 11.1116 20.4617 11.2952 20.5501C11.5419 20.6681 11.8029 20.7271 12.0783 20.7271H12.5Z" fill="#00329F"/>
<path d="M14.0391 12.8906C14.0182 12.6979 13.9922 12.5339 13.9609 12.3984C13.9297 12.2578 13.8932 12.138 13.8516 12.0391C13.8099 11.9349 13.763 11.849 13.7109 11.7812C13.6641 11.7083 13.6094 11.6406 13.5469 11.5781C13.3802 11.401 13.1849 11.2708 12.9609 11.1875C12.7422 11.099 12.4557 11.0547 12.1016 11.0547H10.6016V19.1484C10.6016 19.4818 10.6198 19.75 10.6562 19.9531C10.6979 20.1562 10.7526 20.2995 10.8203 20.3828C11.0026 20.5964 11.3047 20.7031 11.7266 20.7031H12.1016V21H7.60156V20.7031H7.98438C8.21875 20.7031 8.40885 20.6745 8.55469 20.6172C8.70573 20.5547 8.83333 20.4479 8.9375 20.2969C8.99479 20.2188 9.03646 20.0859 9.0625 19.8984C9.08854 19.7109 9.10156 19.4609 9.10156 19.1484V11.0547H7.83594C7.6224 11.0547 7.44271 11.0599 7.29688 11.0703C7.15104 11.0807 7.02344 11.1016 6.91406 11.1328C6.80469 11.1589 6.71094 11.1927 6.63281 11.2344C6.55469 11.276 6.47656 11.3281 6.39844 11.3906C6.21615 11.5417 6.06771 11.7396 5.95312 11.9844C5.83854 12.2292 5.76562 12.5312 5.73438 12.8906H5.38281L5.5 10.4062H14.2891L14.375 12.8906H14.0391Z" fill="white"/>
</svg>
